<svg width="96" height="14" viewBox="0 0 96 14" fill="none" xmlns="http://www.w3.org/2000/svg">
<path d="M0.000266433 13.2699V0.17898H4.42356C5.45055 0.17898 6.29004 0.36435 6.94203 0.735088C7.59828 1.10157 8.08407 1.59801 8.39941 2.22444C8.71476 2.85086 8.87243 3.54972 8.87243 4.32103C8.87243 5.09233 8.71476 5.79333 8.39941 6.42401C8.08834 7.05469 7.6068 7.55753 6.95481 7.93253C6.30282 8.30327 5.4676 8.48864 4.44913 8.48864H1.27868V7.08239H4.39799C5.10112 7.08239 5.66575 6.96094 6.09189 6.71804C6.51802 6.47515 6.82697 6.14702 7.01873 5.73367C7.21476 5.31605 7.31277 4.84517 7.31277 4.32103C7.31277 3.79688 7.21476 3.32813 7.01873 2.91478C6.82697 2.50142 6.51589 2.17756 6.08549 1.94319C5.6551 1.70455 5.08407 1.58523 4.37243 1.58523H1.58549V13.2699H0.000266433ZM11.426 13.2699V0.17898H15.8493C16.8721 0.17898 17.7116 0.353696 18.3678 0.703128C19.0241 1.0483 19.5099 1.52344 19.8252 2.12855C20.1405 2.73367 20.2982 3.42188 20.2982 4.19319C20.2982 4.96449 20.1405 5.64844 19.8252 6.24503C19.5099 6.84162 19.0262 7.31037 18.3742 7.65128C17.7222 7.98793 16.8891 8.15625 15.8749 8.15625H12.2954V6.72444H15.8238C16.5226 6.72444 17.0851 6.62216 17.5113 6.41762C17.9417 6.21307 18.2528 5.9233 18.4445 5.5483C18.6405 5.16904 18.7385 4.71733 18.7385 4.19319C18.7385 3.66904 18.6405 3.21094 18.4445 2.8189C18.2485 2.42685 17.9353 2.12429 17.5049 1.91122C17.0745 1.6939 16.5056 1.58523 15.7982 1.58523H13.0113V13.2699H11.426ZM17.588 7.38921L20.8096 13.2699H18.9687L15.7982 7.38921H17.588ZM33.9852 6.72444C33.9852 8.10512 33.7359 9.2983 33.2373 10.304C32.7387 11.3097 32.0548 12.0852 31.1855 12.6307C30.3161 13.1761 29.3232 13.4489 28.2068 13.4489C27.0903 13.4489 26.0974 13.1761 25.2281 12.6307C24.3588 12.0852 23.6748 11.3097 23.1762 10.304C22.6776 9.2983 22.4284 8.10512 22.4284 6.72444C22.4284 5.34375 22.6776 4.15057 23.1762 3.14489C23.6748 2.13921 24.3588 1.36364 25.2281 0.818185C26.0974 0.27273 27.0903 2.98023e-06 28.2068 2.98023e-06C29.3232 2.98023e-06 30.3161 0.27273 31.1855 0.818185C32.0548 1.36364 32.7387 2.13921 33.2373 3.14489C33.7359 4.15057 33.9852 5.34375 33.9852 6.72444ZM32.4511 6.72444C32.4511 5.59091 32.2615 4.63424 31.8822 3.85441C31.5072 3.07458 30.998 2.48438 30.3545 2.08381C29.7153 1.68324 28.9994 1.48296 28.2068 1.48296C27.4142 1.48296 26.6961 1.68324 26.0526 2.08381C25.4134 2.48438 24.9042 3.07458 24.5249 3.85441C24.1499 4.63424 23.9624 5.59091 23.9624 6.72444C23.9624 7.85796 24.1499 8.81463 24.5249 9.59446C24.9042 10.3743 25.4134 10.9645 26.0526 11.3651C26.6961 11.7656 27.4142 11.9659 28.2068 11.9659C28.9994 11.9659 29.7153 11.7656 30.3545 11.3651C30.998 10.9645 31.5072 10.3743 31.8822 9.59446C32.2615 8.81463 32.4511 7.85796 32.4511 6.72444ZM48.8722 3.45171C48.7955 2.80398 48.4845 2.30114 47.939 1.94319C47.3936 1.58523 46.7245 1.40625 45.9319 1.40625C45.3524 1.40625 44.8453 1.5 44.4106 1.6875C43.9802 1.875 43.6436 2.13282 43.4007 2.46094C43.162 2.78907 43.0427 3.16193 43.0427 3.57955C43.0427 3.92898 43.1258 4.22941 43.292 4.48083C43.4624 4.72799 43.6798 4.93466 43.944 5.10086C44.2082 5.26279 44.4852 5.39702 44.7749 5.50355C45.0647 5.60583 45.3311 5.68892 45.574 5.75284L46.9035 6.1108C47.2444 6.20029 47.6237 6.32387 48.0413 6.48154C48.4632 6.63921 48.8659 6.85441 49.2494 7.12713C49.6372 7.3956 49.9568 7.74077 50.2082 8.16265C50.4596 8.58452 50.5853 9.10228 50.5853 9.71591C50.5853 10.4233 50.3999 11.0625 50.0292 11.6335C49.6627 12.2045 49.1258 12.6584 48.4184 12.995C47.7153 13.3317 46.8609 13.5 45.8552 13.5C44.9177 13.5 44.1059 13.3487 43.4198 13.0462C42.738 12.7436 42.2011 12.3217 41.809 11.7805C41.4213 11.2394 41.2018 10.6108 41.1507 9.89489H42.787C42.8296 10.3892 42.9958 10.7983 43.2856 11.1222C43.5796 11.4418 43.9504 11.6804 44.3978 11.8381C44.8495 11.9915 45.3353 12.0682 45.8552 12.0682C46.4603 12.0682 47.0036 11.9702 47.4852 11.7742C47.9667 11.5739 48.3481 11.2969 48.6294 10.9432C48.9106 10.5852 49.0512 10.1676 49.0512 9.69034C49.0512 9.25569 48.9298 8.90199 48.6869 8.62926C48.444 8.35654 48.1244 8.13495 47.7281 7.96449C47.3318 7.79404 46.9035 7.64489 46.4433 7.51705L44.8325 7.05682C43.8097 6.76279 43.0001 6.34304 42.4035 5.79759C41.8069 5.25213 41.5086 4.53836 41.5086 3.65625C41.5086 2.9233 41.7068 2.28409 42.1031 1.73864C42.5036 1.18892 43.0406 0.762787 43.7139 0.46023C44.3914 0.153412 45.1478 2.98023e-06 45.983 2.98023e-06C46.8268 2.98023e-06 47.5768 0.151281 48.233 0.453838C48.8893 0.752133 49.4092 1.16122 49.7927 1.68111C50.1805 2.201 50.385 2.7912 50.4063 3.45171H48.8722ZM53.7286 13.2699H52.0667L56.8735 0.17898H58.5099L63.3167 13.2699H61.6547L57.7428 2.25H57.6405L53.7286 13.2699ZM54.3422 8.15625H61.0411V9.5625H54.3422V8.15625ZM65.3557 13.2699V0.17898H66.941V11.8636H73.0262V13.2699H65.3557ZM75.4807 13.2699V0.17898H83.3813V1.58523H77.066V6.00853H82.9722V7.41478H77.066V11.8636H83.4836V13.2699H75.4807ZM93.3976 3.45171C93.3209 2.80398 93.0099 2.30114 92.4644 1.94319C91.9189 1.58523 91.2499 1.40625 90.4573 1.40625C89.8778 1.40625 89.3707 1.5 88.936 1.6875C88.5056 1.875 88.1689 2.13282 87.926 2.46094C87.6874 2.78907 87.5681 3.16193 87.5681 3.57955C87.5681 3.92898 87.6512 4.22941 87.8174 4.48083C87.9878 4.72799 88.2052 4.93466 88.4694 5.10086C88.7336 5.26279 89.0106 5.39702 89.3003 5.50355C89.5901 5.60583 89.8564 5.68892 90.0993 5.75284L91.4289 6.1108C91.7698 6.20029 92.1491 6.32387 92.5667 6.48154C92.9885 6.63921 93.3912 6.85441 93.7748 7.12713C94.1626 7.3956 94.4822 7.74077 94.7336 8.16265C94.985 8.58452 95.1107 9.10228 95.1107 9.71591C95.1107 10.4233 94.9253 11.0625 94.5546 11.6335C94.1881 12.2045 93.6512 12.6584 92.9438 12.995C92.2407 13.3317 91.3863 13.5 90.3806 13.5C89.4431 13.5 88.6313 13.3487 87.9452 13.0462C87.2634 12.7436 86.7265 12.3217 86.3344 11.7805C85.9466 11.2394 85.7272 10.6108 85.676 9.89489H87.3124C87.355 10.3892 87.5212 10.7983 87.811 11.1222C88.105 11.4418 88.4758 11.6804 88.9232 11.8381C89.3749 11.9915 89.8607 12.0682 90.3806 12.0682C90.9857 12.0682 91.529 11.9702 92.0106 11.7742C92.4921 11.5739 92.8735 11.2969 93.1547 10.9432C93.436 10.5852 93.5766 10.1676 93.5766 9.69034C93.5766 9.25569 93.4552 8.90199 93.2123 8.62926C92.9694 8.35654 92.6498 8.13495 92.2535 7.96449C91.8572 7.79404 91.4289 7.64489 90.9687 7.51705L89.3579 7.05682C88.3351 6.76279 87.5255 6.34304 86.9289 5.79759C86.3323 5.25213 86.034 4.53836 86.034 3.65625C86.034 2.9233 86.2322 2.28409 86.6285 1.73864C87.029 1.18892 87.566 0.762787 88.2393 0.46023C88.9168 0.153412 89.6732 2.98023e-06 90.5084 2.98023e-06C91.3522 2.98023e-06 92.1022 0.151281 92.7584 0.453838C93.4147 0.752133 93.9346 1.16122 94.3181 1.68111C94.7059 2.201 94.9104 2.7912 94.9317 3.45171H93.3976Z" fill="white"/>
</svg>
