<svg width="256" height="64" viewBox="0 0 256 64" fill="none" xmlns="http://www.w3.org/2000/svg">
<path d="M35.1493 10.8527V52H25.7965V24.2212L22.0604 52H15.427L11.4877 24.8565V52H2.13488V10.8527H15.9862C16.3928 13.3265 16.8249 16.2408 17.2824 19.5956L18.7564 30.0667L21.1963 10.8527H35.1493ZM100.136 10.8527V52H90.7578L85.1918 33.2944V52H76.2457V10.8527H85.1918L91.1898 29.3804V10.8527H100.136ZM129.059 10.8527V52H118.359V34.7176H115.156V52H104.457V10.8527H115.156V25.5682H118.359V10.8527H129.059ZM151.856 10.8527L157.981 52H147.027L146.493 44.6042H142.656L142.02 52H130.939L136.378 10.8527H151.856ZM146.188 37.31C145.646 32.6505 145.104 26.8982 144.562 20.0531C143.477 27.9148 142.8 33.6671 142.529 37.31H146.188ZM178.466 10.8527V19.0873H172.112V52H161.412V19.0873H155.084V10.8527H178.466ZM202.458 10.8527V19.0873H196.104V52H185.404V19.0873H179.076V10.8527H202.458ZM221.29 10.8527L227.415 52H216.461L215.928 44.6042H212.09L211.455 52H200.374L205.812 10.8527H221.29ZM215.623 37.31C215.081 32.6505 214.538 26.8982 213.996 20.0531C212.912 27.9148 212.234 33.6671 211.963 37.31H215.623ZM253.136 10.8527V52H243.757L238.191 33.2944V52H229.245V10.8527H238.191L244.189 29.3804V10.8527H253.136Z" fill="white"/>
<path fill-rule="evenodd" clip-rule="evenodd" d="M50.1952 10.8014V42.4332H48.9961V17.1493H46.5972V26.7162H42.3999V35.5993H38.8018V52H71.7834V51.3172H72.3832V28.7662H69.9843V19.1994H67.5854V15.7821H62.1885V26.7162H60.9892V10.8014H50.1952Z" fill="white"/>
</svg>
