<svg width="282" height="71" viewBox="0 0 282 71" fill="none" xmlns="http://www.w3.org/2000/svg">
<path d="M38.7191 12.6737V58H28.4164V27.3999L24.3009 58H16.9939L12.6544 28.0998V58H2.3517V12.6737H17.6098C18.0577 15.3987 18.5337 18.609 19.0376 22.3045L20.6614 33.8391L23.349 12.6737H38.7191ZM110.306 12.6737V58H99.9754L93.8441 37.3946V58H83.9894V12.6737H93.8441L100.451 33.0831V12.6737H110.306ZM142.166 12.6737V58H130.38V38.9624H126.852V58H115.065V12.6737H126.852V28.8837H130.38V12.6737H142.166ZM167.279 12.6737L174.026 58H161.96L161.372 49.853H157.144L156.444 58H144.238L150.229 12.6737H167.279ZM161.036 41.818C160.438 36.6854 159.841 30.3488 159.244 22.8084C158.049 31.4687 157.303 37.8052 157.004 41.818H161.036ZM196.591 12.6737V21.7446H189.592V58H177.806V21.7446H170.834V12.6737H196.591ZM223.02 12.6737V21.7446H216.021V58H204.234V21.7446H197.263V12.6737H223.02ZM243.765 12.6737L250.512 58H238.446L237.858 49.853H233.63L232.931 58H220.724L226.715 12.6737H243.765ZM237.522 41.818C236.925 36.6854 236.327 30.3488 235.73 22.8084C234.536 31.4687 233.789 37.8052 233.49 41.818H237.522ZM278.845 12.6737V58H268.514L262.383 37.3946V58H252.528V12.6737H262.383L268.99 33.0831V12.6737H278.845Z" fill="white"/>
<path fill-rule="evenodd" clip-rule="evenodd" d="M55.4634 13V47.6022H54.1517V19.944H51.5275V30.4092H46.9361V40.1266H43V58.0674H79.0788V57.3204H79.735V32.6518H77.1108V22.1867H74.4866V18.4484H68.5829V30.4092H67.271V13H55.4634Z" fill="white"/>
</svg>
