<svg width="250" height="62" viewBox="0 0 250 62" fill="none" xmlns="http://www.w3.org/2000/svg">
<path fill-rule="evenodd" clip-rule="evenodd" d="M49.7644 11.0311V41.4774H48.5896V17.1411H46.2393V26.3494H42.1269V34.8996H38.6016V50.6856H70.9158V50.0284H71.5035V28.3226H69.1531V19.1144H66.8027V15.8251H61.515V26.3494H60.34V11.0311H49.7644Z" fill="white"/>
<path d="M34.3725 10.7621V51H25.2264V23.8351L21.5729 51H15.0861L11.2338 24.4564V51H2.0877V10.7621H15.6329C16.0305 13.1812 16.4531 16.031 16.9004 19.3117L18.3419 29.5514L20.7279 10.7621H34.3725ZM97.923 10.7621V51H88.7521L83.3091 32.7078V51H74.5607V10.7621H83.3091L89.1746 28.8803V10.7621H97.923ZM126.206 10.7621V51H115.743V34.0996H112.612V51H102.148V10.7621H112.612V25.1523H115.743V10.7621H126.206ZM148.5 10.7621L154.49 51H143.778L143.256 43.7676H139.503L138.882 51H128.046L133.364 10.7621H148.5ZM142.958 36.6346C142.427 32.0782 141.897 26.453 141.367 19.7591C140.307 27.4471 139.644 33.0723 139.379 36.6346H142.958ZM174.522 10.7621V18.8146H168.308V51H157.845V18.8146H151.656V10.7621H174.522ZM197.983 10.7621V18.8146H191.77V51H181.307V18.8146H175.118V10.7621H197.983ZM216.4 10.7621L222.39 51H211.678L211.156 43.7676H207.403L206.782 51H195.946L201.264 10.7621H216.4ZM210.858 36.6346C210.327 32.0782 209.797 26.453 209.267 19.7591C208.207 27.4471 207.544 33.0723 207.279 36.6346H210.858ZM247.542 10.7621V51H238.371L232.928 32.7078V51H224.179V10.7621H232.928L238.793 28.8803V10.7621H247.542Z" fill="white"/>
</svg>
