<svg width="294" height="26" viewBox="0 0 294 26" fill="none" xmlns="http://www.w3.org/2000/svg">
<path d="M1.16016 20V4.53125H4.71094C5.32617 4.53125 5.83594 4.625 6.24023 4.8125C6.65039 5 6.97266 5.27832 7.20703 5.64746C7.44141 6.0166 7.6084 6.47363 7.70801 7.01855C7.80762 7.55762 7.85742 8.18164 7.85742 8.89062V9.21582C7.85742 10.2119 7.76953 11.0615 7.59375 11.7646C7.42383 12.4619 7.11621 12.9922 6.6709 13.3555C6.22559 13.7188 5.59863 13.9004 4.79004 13.9004H3.51562V20H1.16016ZM3.51562 11.958H4.32422C4.66992 11.958 4.92773 11.8701 5.09766 11.6943C5.26758 11.5186 5.37891 11.2285 5.43164 10.8242C5.49023 10.4141 5.51953 9.86914 5.51953 9.18945V8.89062C5.51367 8.05273 5.44043 7.41992 5.2998 6.99219C5.15918 6.55859 4.83984 6.3418 4.3418 6.3418H3.51562V11.958ZM9.45703 20V4.53125H13.3506C14.1592 4.53125 14.7627 4.68945 15.1611 5.00586C15.5596 5.32227 15.8203 5.78516 15.9434 6.39453C16.0723 7.00391 16.1367 7.74805 16.1367 8.62695C16.1367 9.53516 16.043 10.25 15.8555 10.7715C15.6738 11.2871 15.2988 11.6328 14.7305 11.8086C15 11.8555 15.2256 11.9668 15.4072 12.1426C15.5889 12.3125 15.7354 12.5645 15.8467 12.8984C15.958 13.2266 16.0371 13.6514 16.084 14.1729C16.1367 14.6885 16.1631 15.3213 16.1631 16.0713C16.1631 16.1299 16.1631 16.2939 16.1631 16.5635C16.1631 16.833 16.1631 17.1523 16.1631 17.5215C16.1689 17.8848 16.1748 18.248 16.1807 18.6113C16.1865 18.9746 16.1953 19.2852 16.207 19.543C16.2188 19.8008 16.2334 19.9531 16.251 20H13.8955C13.8779 19.9707 13.8633 19.8213 13.8516 19.5518C13.8457 19.2764 13.8369 18.9277 13.8252 18.5059C13.8193 18.084 13.8135 17.6299 13.8076 17.1436C13.8076 16.6572 13.8076 16.1797 13.8076 15.7109C13.8076 15.2363 13.8076 14.8174 13.8076 14.4541C13.8076 13.9912 13.7725 13.6426 13.7021 13.4082C13.6377 13.168 13.5146 13.001 13.333 12.9072C13.1572 12.8135 12.9023 12.7578 12.5684 12.7402L11.8125 12.6963V20H9.45703ZM11.8213 10.8682H12.7617C13.0488 10.8682 13.2656 10.8037 13.4121 10.6748C13.5645 10.5459 13.667 10.3086 13.7197 9.96289C13.7783 9.61719 13.8076 9.11914 13.8076 8.46875V8.37207C13.8076 7.82715 13.7812 7.4082 13.7285 7.11523C13.6758 6.82227 13.5645 6.62012 13.3945 6.50879C13.2305 6.39746 12.9727 6.3418 12.6211 6.3418H11.8213V10.8682ZM21.4277 20.1758C20.625 20.1758 19.9688 20.0059 19.459 19.666C18.9551 19.3262 18.583 18.8223 18.3428 18.1543C18.1025 17.4863 17.9824 16.6602 17.9824 15.6758V8.60059C17.9824 7.70996 18.0996 6.94824 18.334 6.31543C18.5684 5.68262 18.9404 5.19629 19.4502 4.85645C19.96 4.5166 20.6279 4.34668 21.4541 4.34668C22.0752 4.34668 22.5996 4.44336 23.0273 4.63672C23.4551 4.83008 23.8008 5.11133 24.0645 5.48047C24.3281 5.84375 24.5186 6.28906 24.6357 6.81641C24.7588 7.33789 24.8203 7.93262 24.8203 8.60059V15.6758C24.8203 16.6602 24.7031 17.4863 24.4688 18.1543C24.2402 18.8223 23.877 19.3262 23.3789 19.666C22.8809 20.0059 22.2305 20.1758 21.4277 20.1758ZM21.4277 18.1367C21.7207 18.1367 21.9404 18.0488 22.0869 17.873C22.2334 17.6973 22.3301 17.4307 22.377 17.0732C22.4297 16.71 22.4561 16.2529 22.4561 15.7021V8.49512C22.4561 7.82129 22.3916 7.30273 22.2627 6.93945C22.1396 6.57031 21.8701 6.38574 21.4541 6.38574C21.0264 6.38574 20.7363 6.56445 20.584 6.92188C20.4316 7.27344 20.3555 7.79492 20.3555 8.48633V15.7021C20.3555 16.2646 20.3789 16.7275 20.4258 17.0908C20.4785 17.4482 20.5811 17.7119 20.7334 17.8818C20.8916 18.0518 21.123 18.1367 21.4277 18.1367ZM29.7861 20.1758C29.1416 20.1758 28.6025 20.0762 28.1689 19.877C27.7412 19.6719 27.4014 19.376 27.1494 18.9893C26.9033 18.5967 26.7275 18.1221 26.6221 17.5654C26.5166 17.0029 26.4639 16.3643 26.4639 15.6494V14.2695H28.6963V15.8252C28.6963 16.6572 28.7666 17.2549 28.9072 17.6182C29.0479 17.9814 29.3262 18.1631 29.7422 18.1631C30.0234 18.1631 30.2344 18.0986 30.375 17.9697C30.5215 17.835 30.6182 17.624 30.665 17.3369C30.7178 17.0439 30.7441 16.6631 30.7441 16.1943C30.7441 15.6143 30.6211 15.084 30.375 14.6035C30.1348 14.123 29.7686 13.625 29.2764 13.1094L28.1338 11.9316C27.8174 11.6035 27.5303 11.2549 27.2725 10.8857C27.0205 10.5166 26.8184 10.1064 26.666 9.65527C26.5195 9.19824 26.4463 8.68848 26.4463 8.12598C26.4463 7.31152 26.5459 6.62305 26.7451 6.06055C26.9443 5.49805 27.2812 5.07324 27.7559 4.78613C28.2305 4.49316 28.8809 4.34668 29.707 4.34668C30.3281 4.34668 30.8379 4.44336 31.2363 4.63672C31.6406 4.82422 31.9541 5.10254 32.1768 5.47168C32.4053 5.83496 32.5664 6.28027 32.6602 6.80762C32.7539 7.3291 32.8008 7.92676 32.8008 8.60059V9.55859H30.6299V8.45117C30.6299 7.98242 30.6035 7.59277 30.5508 7.28223C30.5039 6.97168 30.4131 6.74023 30.2783 6.58789C30.1436 6.42969 29.9473 6.35059 29.6895 6.35059C29.4434 6.35059 29.2441 6.40625 29.0918 6.51758C28.9395 6.62305 28.8281 6.79004 28.7578 7.01855C28.6934 7.24121 28.6611 7.53125 28.6611 7.88867C28.6611 8.21094 28.7021 8.48926 28.7842 8.72363C28.8662 8.95801 28.9922 9.18359 29.1621 9.40039C29.332 9.61719 29.543 9.86035 29.7949 10.1299L31.0693 11.5098C31.6787 12.166 32.1533 12.8486 32.4932 13.5576C32.833 14.2666 33.0029 15.0576 33.0029 15.9307C33.0029 16.8564 32.9033 17.6357 32.7041 18.2686C32.5049 18.8955 32.1709 19.3701 31.7021 19.6924C31.2334 20.0146 30.5947 20.1758 29.7861 20.1758ZM34.6641 20V4.53125H38.2148C38.8301 4.53125 39.3398 4.625 39.7441 4.8125C40.1543 5 40.4766 5.27832 40.7109 5.64746C40.9453 6.0166 41.1123 6.47363 41.2119 7.01855C41.3115 7.55762 41.3613 8.18164 41.3613 8.89062V9.21582C41.3613 10.2119 41.2734 11.0615 41.0977 11.7646C40.9277 12.4619 40.6201 12.9922 40.1748 13.3555C39.7295 13.7188 39.1025 13.9004 38.2939 13.9004H37.0195V20H34.6641ZM37.0195 11.958H37.8281C38.1738 11.958 38.4316 11.8701 38.6016 11.6943C38.7715 11.5186 38.8828 11.2285 38.9355 10.8242C38.9941 10.4141 39.0234 9.86914 39.0234 9.18945V8.89062C39.0176 8.05273 38.9443 7.41992 38.8037 6.99219C38.6631 6.55859 38.3438 6.3418 37.8457 6.3418H37.0195V11.958ZM42.9609 20V4.53125H48.1465V6.56152H45.3164V11.0615H48.0059V13.0479H45.3164V17.9697H48.252V20H42.9609ZM53.165 20.1758C52.415 20.1758 51.791 20.0029 51.293 19.6572C50.7949 19.3115 50.4199 18.8076 50.168 18.1455C49.9219 17.4775 49.7988 16.6719 49.7988 15.7285V8.9873C49.7988 8.27832 49.8574 7.63965 49.9746 7.07129C50.0918 6.50293 50.2822 6.0166 50.5459 5.6123C50.8096 5.20801 51.1611 4.89746 51.6006 4.68066C52.04 4.46387 52.582 4.35547 53.2266 4.35547C53.8125 4.35547 54.3105 4.45215 54.7207 4.64551C55.1367 4.83301 55.4736 5.10547 55.7314 5.46289C55.9951 5.82031 56.1855 6.25391 56.3027 6.76367C56.4258 7.26758 56.4873 7.83594 56.4873 8.46875V10.5957H54.2109V8.61816C54.2109 7.85645 54.1465 7.29688 54.0176 6.93945C53.8887 6.57617 53.6309 6.39453 53.2441 6.39453C52.8164 6.39453 52.5293 6.59082 52.3828 6.9834C52.2422 7.37012 52.1719 7.91211 52.1719 8.60938V15.834C52.1719 16.373 52.2012 16.8154 52.2598 17.1611C52.3242 17.501 52.4297 17.7529 52.5762 17.917C52.7227 18.0752 52.9277 18.1543 53.1914 18.1543C53.5898 18.1543 53.8594 17.9668 54 17.5918C54.1406 17.2168 54.2109 16.6221 54.2109 15.8076V13.5928H56.5225V15.7812C56.5225 16.7598 56.4082 17.5771 56.1797 18.2334C55.9512 18.8838 55.5879 19.3701 55.0898 19.6924C54.5977 20.0146 53.9561 20.1758 53.165 20.1758ZM61.6904 20.1758C60.9404 20.1758 60.3164 20.0029 59.8184 19.6572C59.3203 19.3115 58.9453 18.8076 58.6934 18.1455C58.4473 17.4775 58.3242 16.6719 58.3242 15.7285V8.9873C58.3242 8.27832 58.3828 7.63965 58.5 7.07129C58.6172 6.50293 58.8076 6.0166 59.0713 5.6123C59.335 5.20801 59.6865 4.89746 60.126 4.68066C60.5654 4.46387 61.1074 4.35547 61.752 4.35547C62.3379 4.35547 62.8359 4.45215 63.2461 4.64551C63.6621 4.83301 63.999 5.10547 64.2568 5.46289C64.5205 5.82031 64.7109 6.25391 64.8281 6.76367C64.9512 7.26758 65.0127 7.83594 65.0127 8.46875V10.5957H62.7363V8.61816C62.7363 7.85645 62.6719 7.29688 62.543 6.93945C62.4141 6.57617 62.1562 6.39453 61.7695 6.39453C61.3418 6.39453 61.0547 6.59082 60.9082 6.9834C60.7676 7.37012 60.6973 7.91211 60.6973 8.60938V15.834C60.6973 16.373 60.7266 16.8154 60.7852 17.1611C60.8496 17.501 60.9551 17.7529 61.1016 17.917C61.248 18.0752 61.4531 18.1543 61.7168 18.1543C62.1152 18.1543 62.3848 17.9668 62.5254 17.5918C62.666 17.2168 62.7363 16.6221 62.7363 15.8076V13.5928H65.0479V15.7812C65.0479 16.7598 64.9336 17.5771 64.7051 18.2334C64.4766 18.8838 64.1133 19.3701 63.6152 19.6924C63.123 20.0146 62.4814 20.1758 61.6904 20.1758ZM61.5938 25.6074C61.1367 25.6074 60.7002 25.5312 60.2842 25.3789V24.4033C60.8408 24.4033 61.2627 24.3447 61.5498 24.2275C61.8428 24.1104 62.042 23.9551 62.1475 23.7617C62.2588 23.5742 62.3145 23.3721 62.3145 23.1553C62.3145 22.7568 62.1709 22.4375 61.8838 22.1973C61.5967 21.957 61.2715 21.7988 60.9082 21.7227L61.2598 20H61.9805L62.1123 21.2393C62.7744 21.4678 63.2725 21.7812 63.6064 22.1797C63.9463 22.5781 64.1162 23.0117 64.1162 23.4805C64.1162 23.8496 64.0166 24.1953 63.8174 24.5176C63.624 24.8398 63.3398 25.1006 62.9648 25.2998C62.5898 25.5049 62.1328 25.6074 61.5938 25.6074ZM66.1289 20L68.335 4.53125H71.4463L73.793 20H71.5957L71.2266 17.2402H68.7305L68.3965 20H66.1289ZM68.959 15.3506H70.9805L69.9434 7.58105H69.9082L68.959 15.3506ZM71.2178 3.30078C70.96 3.30078 70.6846 3.24219 70.3916 3.125C70.0986 3.00195 69.8086 2.88184 69.5215 2.76465C69.2344 2.6416 68.9678 2.58008 68.7217 2.58008C68.6279 2.58008 68.5605 2.58594 68.5195 2.59766C68.4258 2.62109 68.3467 2.67676 68.2822 2.76465C68.2236 2.84668 68.1533 2.96387 68.0713 3.11621L66.9287 2.65918C67.0459 2.26074 67.1865 1.94727 67.3506 1.71875C67.5146 1.48438 67.7021 1.31738 67.9131 1.21777C68.124 1.1123 68.3584 1.05957 68.6162 1.05957C68.8564 1.05957 69.1348 1.11523 69.4512 1.22656C69.7734 1.33203 70.0811 1.44043 70.374 1.55176C70.667 1.65723 70.8867 1.70996 71.0332 1.70996H71.0684C71.1504 1.69824 71.2295 1.65723 71.3057 1.58691C71.3818 1.5166 71.4668 1.34961 71.5605 1.08594L72.8086 1.33203L72.7295 1.75391C72.6006 2.35742 72.4131 2.76758 72.167 2.98438C71.9268 3.19531 71.6104 3.30078 71.2178 3.30078ZM78.4512 20.1758C77.6484 20.1758 76.9922 20.0059 76.4824 19.666C75.9785 19.3262 75.6064 18.8223 75.3662 18.1543C75.126 17.4863 75.0059 16.6602 75.0059 15.6758V8.60059C75.0059 7.70996 75.123 6.94824 75.3574 6.31543C75.5918 5.68262 75.9639 5.19629 76.4736 4.85645C76.9834 4.5166 77.6514 4.34668 78.4775 4.34668C79.0986 4.34668 79.623 4.44336 80.0508 4.63672C80.4785 4.83008 80.8242 5.11133 81.0879 5.48047C81.3516 5.84375 81.542 6.28906 81.6592 6.81641C81.7822 7.33789 81.8438 7.93262 81.8438 8.60059V15.6758C81.8438 16.6602 81.7266 17.4863 81.4922 18.1543C81.2637 18.8223 80.9004 19.3262 80.4023 19.666C79.9043 20.0059 79.2539 20.1758 78.4512 20.1758ZM78.4512 18.1367C78.7441 18.1367 78.9639 18.0488 79.1104 17.873C79.2568 17.6973 79.3535 17.4307 79.4004 17.0732C79.4531 16.71 79.4795 16.2529 79.4795 15.7021V8.49512C79.4795 7.82129 79.415 7.30273 79.2861 6.93945C79.1631 6.57031 78.8936 6.38574 78.4775 6.38574C78.0498 6.38574 77.7598 6.56445 77.6074 6.92188C77.4551 7.27344 77.3789 7.79492 77.3789 8.48633V15.7021C77.3789 16.2646 77.4023 16.7275 77.4492 17.0908C77.502 17.4482 77.6045 17.7119 77.7568 17.8818C77.915 18.0518 78.1465 18.1367 78.4512 18.1367ZM87.2754 20V4.53125H89.6309V20H87.2754ZM92.0039 20V4.53125H93.8496L97.1279 13.8125L96.9609 9.59375V4.53125H99.0791V20H97.4092L94.043 10.3936L94.1748 14.4541V20H92.0039ZM102.217 20V6.57031H100.406V4.53125H106.304V6.57031H104.563V20H102.217ZM107.631 20V4.53125H112.816V6.56152H109.986V11.0615H112.676V13.0479H109.986V17.9697H112.922V20H107.631ZM114.662 20V4.53125H117.018V17.9961H119.997V20H114.662ZM121.324 20V4.53125H123.68V20H121.324ZM128.962 20.1582C128.03 20.1582 127.28 19.792 126.712 19.0596C126.144 18.3213 125.859 17.126 125.859 15.4736V8.75C125.859 8.05859 125.924 7.44043 126.053 6.89551C126.188 6.35059 126.393 5.89063 126.668 5.51562C126.949 5.13477 127.312 4.84766 127.758 4.6543C128.203 4.45508 128.739 4.35547 129.366 4.35547C130.046 4.35547 130.6 4.45801 131.027 4.66309C131.455 4.8623 131.783 5.15527 132.012 5.54199C132.246 5.92285 132.407 6.3916 132.495 6.94824C132.583 7.50488 132.627 8.13477 132.627 8.83789V9.93652H130.43V8.31934C130.43 7.62207 130.356 7.12695 130.21 6.83398C130.069 6.54102 129.8 6.39453 129.401 6.39453C128.962 6.39453 128.657 6.56738 128.487 6.91309C128.317 7.25293 128.232 7.85938 128.232 8.73242V15.4385C128.232 16.4111 128.303 17.1084 128.443 17.5303C128.59 17.9463 128.892 18.1543 129.349 18.1543C129.794 18.1543 130.107 17.9404 130.289 17.5127C130.477 17.0791 130.57 16.3584 130.57 15.3506V13.2676H129.384V11.5537H132.627V20H131.572L131.212 18.4795C131.083 19.0127 130.808 19.4258 130.386 19.7188C129.97 20.0117 129.495 20.1582 128.962 20.1582ZM134.842 20V4.53125H140.027V6.56152H137.197V11.0615H139.887V13.0479H137.197V17.9697H140.133V20H134.842ZM141.873 20V4.53125H143.719L146.997 13.8125L146.83 9.59375V4.53125H148.948V20H147.278L143.912 10.3936L144.044 14.4541V20H141.873ZM152.086 20V6.57031H150.275V4.53125H156.173V6.57031H154.433V20H152.086ZM157.5 20V4.53125H162.686V6.56152H159.855V11.0615H162.545V13.0479H159.855V17.9697H162.791V20H157.5ZM164.681 20V17.8379H166.658V20H164.681ZM172.441 20V4.53125H176.335C177.144 4.53125 177.747 4.68945 178.146 5.00586C178.544 5.32227 178.805 5.78516 178.928 6.39453C179.057 7.00391 179.121 7.74805 179.121 8.62695C179.121 9.53516 179.027 10.25 178.84 10.7715C178.658 11.2871 178.283 11.6328 177.715 11.8086C177.984 11.8555 178.21 11.9668 178.392 12.1426C178.573 12.3125 178.72 12.5645 178.831 12.8984C178.942 13.2266 179.021 13.6514 179.068 14.1729C179.121 14.6885 179.147 15.3213 179.147 16.0713C179.147 16.1299 179.147 16.2939 179.147 16.5635C179.147 16.833 179.147 17.1523 179.147 17.5215C179.153 17.8848 179.159 18.248 179.165 18.6113C179.171 18.9746 179.18 19.2852 179.191 19.543C179.203 19.8008 179.218 19.9531 179.235 20H176.88C176.862 19.9707 176.848 19.8213 176.836 19.5518C176.83 19.2764 176.821 18.9277 176.81 18.5059C176.804 18.084 176.798 17.6299 176.792 17.1436C176.792 16.6572 176.792 16.1797 176.792 15.7109C176.792 15.2363 176.792 14.8174 176.792 14.4541C176.792 13.9912 176.757 13.6426 176.687 13.4082C176.622 13.168 176.499 13.001 176.317 12.9072C176.142 12.8135 175.887 12.7578 175.553 12.7402L174.797 12.6963V20H172.441ZM174.806 10.8682H175.746C176.033 10.8682 176.25 10.8037 176.396 10.6748C176.549 10.5459 176.651 10.3086 176.704 9.96289C176.763 9.61719 176.792 9.11914 176.792 8.46875V8.37207C176.792 7.82715 176.766 7.4082 176.713 7.11523C176.66 6.82227 176.549 6.62012 176.379 6.50879C176.215 6.39746 175.957 6.3418 175.605 6.3418H174.806V10.8682ZM181.16 20V4.53125H186.346V6.56152H183.516V11.0615H186.205V13.0479H183.516V17.9697H186.451V20H181.16ZM191.013 20.1758C190.368 20.1758 189.829 20.0762 189.396 19.877C188.968 19.6719 188.628 19.376 188.376 18.9893C188.13 18.5967 187.954 18.1221 187.849 17.5654C187.743 17.0029 187.69 16.3643 187.69 15.6494V14.2695H189.923V15.8252C189.923 16.6572 189.993 17.2549 190.134 17.6182C190.274 17.9814 190.553 18.1631 190.969 18.1631C191.25 18.1631 191.461 18.0986 191.602 17.9697C191.748 17.835 191.845 17.624 191.892 17.3369C191.944 17.0439 191.971 16.6631 191.971 16.1943C191.971 15.6143 191.848 15.084 191.602 14.6035C191.361 14.123 190.995 13.625 190.503 13.1094L189.36 11.9316C189.044 11.6035 188.757 11.2549 188.499 10.8857C188.247 10.5166 188.045 10.1064 187.893 9.65527C187.746 9.19824 187.673 8.68848 187.673 8.12598C187.673 7.31152 187.772 6.62305 187.972 6.06055C188.171 5.49805 188.508 5.07324 188.982 4.78613C189.457 4.49316 190.107 4.34668 190.934 4.34668C191.555 4.34668 192.064 4.44336 192.463 4.63672C192.867 4.82422 193.181 5.10254 193.403 5.47168C193.632 5.83496 193.793 6.28027 193.887 6.80762C193.98 7.3291 194.027 7.92676 194.027 8.60059V9.55859H191.856V8.45117C191.856 7.98242 191.83 7.59277 191.777 7.28223C191.73 6.97168 191.64 6.74023 191.505 6.58789C191.37 6.42969 191.174 6.35059 190.916 6.35059C190.67 6.35059 190.471 6.40625 190.318 6.51758C190.166 6.62305 190.055 6.79004 189.984 7.01855C189.92 7.24121 189.888 7.53125 189.888 7.88867C189.888 8.21094 189.929 8.48926 190.011 8.72363C190.093 8.95801 190.219 9.18359 190.389 9.40039C190.559 9.61719 190.77 9.86035 191.021 10.1299L192.296 11.5098C192.905 12.166 193.38 12.8486 193.72 13.5576C194.06 14.2666 194.229 15.0576 194.229 15.9307C194.229 16.8564 194.13 17.6357 193.931 18.2686C193.731 18.8955 193.397 19.3701 192.929 19.6924C192.46 20.0146 191.821 20.1758 191.013 20.1758ZM199.195 20.1758C198.393 20.1758 197.739 20.0264 197.235 19.7275C196.731 19.4229 196.362 18.9658 196.128 18.3564C195.894 17.7412 195.776 16.9648 195.776 16.0273V4.53125H198.132V15.9834C198.132 16.417 198.149 16.7979 198.185 17.126C198.226 17.4541 198.319 17.709 198.466 17.8906C198.612 18.0723 198.853 18.1631 199.187 18.1631C199.521 18.1631 199.761 18.0752 199.907 17.8994C200.06 17.7178 200.153 17.4629 200.188 17.1348C200.224 16.8066 200.241 16.4229 200.241 15.9834V4.53125H202.597V16.0273C202.597 16.9648 202.479 17.7412 202.245 18.3564C202.017 18.9658 201.65 19.4229 201.146 19.7275C200.648 20.0264 199.998 20.1758 199.195 20.1758ZM204.803 20V4.53125H207.158V17.9961H210.138V20H204.803ZM211.957 20V6.57031H210.146V4.53125H216.044V6.57031H214.304V20H211.957ZM216.018 20L218.224 4.53125H221.335L223.682 20H221.484L221.115 17.2402H218.619L218.285 20H216.018ZM218.848 15.3506H220.869L219.832 7.58105H219.797L218.848 15.3506ZM225.088 20V4.53125H228.56C229.345 4.53125 229.975 4.68945 230.449 5.00586C230.924 5.31641 231.267 5.76758 231.478 6.35938C231.694 6.95117 231.803 7.66602 231.803 8.50391L231.812 15.4824C231.812 16.4961 231.7 17.3398 231.478 18.0137C231.261 18.6816 230.909 19.1797 230.423 19.5078C229.937 19.8359 229.289 20 228.48 20H225.088ZM227.443 18.1719H228.217C228.492 18.1719 228.721 18.1162 228.902 18.0049C229.09 17.8936 229.228 17.6973 229.315 17.416C229.409 17.1289 229.456 16.7246 229.456 16.2031L229.447 8.56543C229.447 7.77441 229.351 7.20605 229.157 6.86035C228.964 6.51465 228.624 6.3418 228.138 6.3418H227.443V18.1719ZM237.199 20.1758C236.396 20.1758 235.74 20.0059 235.23 19.666C234.727 19.3262 234.354 18.8223 234.114 18.1543C233.874 17.4863 233.754 16.6602 233.754 15.6758V8.60059C233.754 7.70996 233.871 6.94824 234.105 6.31543C234.34 5.68262 234.712 5.19629 235.222 4.85645C235.731 4.5166 236.399 4.34668 237.226 4.34668C237.847 4.34668 238.371 4.44336 238.799 4.63672C239.227 4.83008 239.572 5.11133 239.836 5.48047C240.1 5.84375 240.29 6.28906 240.407 6.81641C240.53 7.33789 240.592 7.93262 240.592 8.60059V15.6758C240.592 16.6602 240.475 17.4863 240.24 18.1543C240.012 18.8223 239.648 19.3262 239.15 19.666C238.652 20.0059 238.002 20.1758 237.199 20.1758ZM237.199 18.1367C237.492 18.1367 237.712 18.0488 237.858 17.873C238.005 17.6973 238.102 17.4307 238.148 17.0732C238.201 16.71 238.228 16.2529 238.228 15.7021V8.49512C238.228 7.82129 238.163 7.30273 238.034 6.93945C237.911 6.57031 237.642 6.38574 237.226 6.38574C236.798 6.38574 236.508 6.56445 236.355 6.92188C236.203 7.27344 236.127 7.79492 236.127 8.48633V15.7021C236.127 16.2646 236.15 16.7275 236.197 17.0908C236.25 17.4482 236.353 17.7119 236.505 17.8818C236.663 18.0518 236.895 18.1367 237.199 18.1367ZM245.558 20.1758C244.913 20.1758 244.374 20.0762 243.94 19.877C243.513 19.6719 243.173 19.376 242.921 18.9893C242.675 18.5967 242.499 18.1221 242.394 17.5654C242.288 17.0029 242.235 16.3643 242.235 15.6494V14.2695H244.468V15.8252C244.468 16.6572 244.538 17.2549 244.679 17.6182C244.819 17.9814 245.098 18.1631 245.514 18.1631C245.795 18.1631 246.006 18.0986 246.146 17.9697C246.293 17.835 246.39 17.624 246.437 17.3369C246.489 17.0439 246.516 16.6631 246.516 16.1943C246.516 15.6143 246.393 15.084 246.146 14.6035C245.906 14.123 245.54 13.625 245.048 13.1094L243.905 11.9316C243.589 11.6035 243.302 11.2549 243.044 10.8857C242.792 10.5166 242.59 10.1064 242.438 9.65527C242.291 9.19824 242.218 8.68848 242.218 8.12598C242.218 7.31152 242.317 6.62305 242.517 6.06055C242.716 5.49805 243.053 5.07324 243.527 4.78613C244.002 4.49316 244.652 4.34668 245.479 4.34668C246.1 4.34668 246.609 4.44336 247.008 4.63672C247.412 4.82422 247.726 5.10254 247.948 5.47168C248.177 5.83496 248.338 6.28027 248.432 6.80762C248.525 7.3291 248.572 7.92676 248.572 8.60059V9.55859H246.401V8.45117C246.401 7.98242 246.375 7.59277 246.322 7.28223C246.275 6.97168 246.185 6.74023 246.05 6.58789C245.915 6.42969 245.719 6.35059 245.461 6.35059C245.215 6.35059 245.016 6.40625 244.863 6.51758C244.711 6.62305 244.6 6.79004 244.529 7.01855C244.465 7.24121 244.433 7.53125 244.433 7.88867C244.433 8.21094 244.474 8.48926 244.556 8.72363C244.638 8.95801 244.764 9.18359 244.934 9.40039C245.104 9.61719 245.314 9.86035 245.566 10.1299L246.841 11.5098C247.45 12.166 247.925 12.8486 248.265 13.5576C248.604 14.2666 248.774 15.0576 248.774 15.9307C248.774 16.8564 248.675 17.6357 248.476 18.2686C248.276 18.8955 247.942 19.3701 247.474 19.6924C247.005 20.0146 246.366 20.1758 245.558 20.1758ZM253.67 20V4.53125H257.563C258.372 4.53125 258.976 4.68945 259.374 5.00586C259.772 5.32227 260.033 5.78516 260.156 6.39453C260.285 7.00391 260.35 7.74805 260.35 8.62695C260.35 9.53516 260.256 10.25 260.068 10.7715C259.887 11.2871 259.512 11.6328 258.943 11.8086C259.213 11.8555 259.438 11.9668 259.62 12.1426C259.802 12.3125 259.948 12.5645 260.06 12.8984C260.171 13.2266 260.25 13.6514 260.297 14.1729C260.35 14.6885 260.376 15.3213 260.376 16.0713C260.376 16.1299 260.376 16.2939 260.376 16.5635C260.376 16.833 260.376 17.1523 260.376 17.5215C260.382 17.8848 260.388 18.248 260.394 18.6113C260.399 18.9746 260.408 19.2852 260.42 19.543C260.432 19.8008 260.446 19.9531 260.464 20H258.108C258.091 19.9707 258.076 19.8213 258.064 19.5518C258.059 19.2764 258.05 18.9277 258.038 18.5059C258.032 18.084 258.026 17.6299 258.021 17.1436C258.021 16.6572 258.021 16.1797 258.021 15.7109C258.021 15.2363 258.021 14.8174 258.021 14.4541C258.021 13.9912 257.985 13.6426 257.915 13.4082C257.851 13.168 257.728 13.001 257.546 12.9072C257.37 12.8135 257.115 12.7578 256.781 12.7402L256.025 12.6963V20H253.67ZM256.034 10.8682H256.975C257.262 10.8682 257.479 10.8037 257.625 10.6748C257.777 10.5459 257.88 10.3086 257.933 9.96289C257.991 9.61719 258.021 9.11914 258.021 8.46875V8.37207C258.021 7.82715 257.994 7.4082 257.941 7.11523C257.889 6.82227 257.777 6.62012 257.607 6.50879C257.443 6.39746 257.186 6.3418 256.834 6.3418H256.034V10.8682ZM262.389 20V4.53125H267.574V6.56152H264.744V11.0615H267.434V13.0479H264.744V17.9697H267.68V20H262.389ZM268.506 20L270.712 4.53125H273.823L276.17 20H273.973L273.604 17.2402H271.107L270.773 20H268.506ZM271.336 15.3506H273.357L272.32 7.58105H272.285L271.336 15.3506ZM277.629 20V4.53125H279.984V20H277.629ZM285.179 20.1758C284.534 20.1758 283.995 20.0762 283.562 19.877C283.134 19.6719 282.794 19.376 282.542 18.9893C282.296 18.5967 282.12 18.1221 282.015 17.5654C281.909 17.0029 281.856 16.3643 281.856 15.6494V14.2695H284.089V15.8252C284.089 16.6572 284.159 17.2549 284.3 17.6182C284.44 17.9814 284.719 18.1631 285.135 18.1631C285.416 18.1631 285.627 18.0986 285.768 17.9697C285.914 17.835 286.011 17.624 286.058 17.3369C286.11 17.0439 286.137 16.6631 286.137 16.1943C286.137 15.6143 286.014 15.084 285.768 14.6035C285.527 14.123 285.161 13.625 284.669 13.1094L283.526 11.9316C283.21 11.6035 282.923 11.2549 282.665 10.8857C282.413 10.5166 282.211 10.1064 282.059 9.65527C281.912 9.19824 281.839 8.68848 281.839 8.12598C281.839 7.31152 281.938 6.62305 282.138 6.06055C282.337 5.49805 282.674 5.07324 283.148 4.78613C283.623 4.49316 284.273 4.34668 285.1 4.34668C285.721 4.34668 286.23 4.44336 286.629 4.63672C287.033 4.82422 287.347 5.10254 287.569 5.47168C287.798 5.83496 287.959 6.28027 288.053 6.80762C288.146 7.3291 288.193 7.92676 288.193 8.60059V9.55859H286.022V8.45117C286.022 7.98242 285.996 7.59277 285.943 7.28223C285.896 6.97168 285.806 6.74023 285.671 6.58789C285.536 6.42969 285.34 6.35059 285.082 6.35059C284.836 6.35059 284.637 6.40625 284.484 6.51758C284.332 6.62305 284.221 6.79004 284.15 7.01855C284.086 7.24121 284.054 7.53125 284.054 7.88867C284.054 8.21094 284.095 8.48926 284.177 8.72363C284.259 8.95801 284.385 9.18359 284.555 9.40039C284.725 9.61719 284.936 9.86035 285.188 10.1299L286.462 11.5098C287.071 12.166 287.546 12.8486 287.886 13.5576C288.226 14.2666 288.396 15.0576 288.396 15.9307C288.396 16.8564 288.296 17.6357 288.097 18.2686C287.897 18.8955 287.563 19.3701 287.095 19.6924C286.626 20.0146 285.987 20.1758 285.179 20.1758ZM290.206 20V17.8379H292.184V20H290.206Z" fill="white"/>
</svg>
