<svg width="239" height="60" viewBox="0 0 239 60" fill="none" xmlns="http://www.w3.org/2000/svg">
<path d="M32.8151 10.5852V49H24.0834V23.0658L20.5955 49H14.4026L10.7248 23.659V49H1.99311V10.5852H14.9246C15.3042 12.8947 15.7076 15.6154 16.1347 18.7474L17.5109 28.5232L19.7887 10.5852H32.8151ZM93.4863 10.5852V49H84.7309L79.5346 31.5366V49H71.1825V10.5852H79.5346L85.1343 27.8825V10.5852H93.4863ZM120.488 10.5852V49H110.499V32.8653H107.509V49H97.52V10.5852H107.509V24.3234H110.499V10.5852H120.488ZM141.772 10.5852L147.49 49H137.264L136.765 42.0953H133.182L132.589 49H122.244L127.322 10.5852H141.772ZM136.481 35.2855C135.974 30.9355 135.468 25.5651 134.962 19.1745C133.95 26.5142 133.317 31.8846 133.064 35.2855H136.481ZM166.614 10.5852V18.2729H160.683V49H150.693V18.2729H144.785V10.5852H166.614ZM189.013 10.5852V18.2729H183.081V49H173.092V18.2729H167.184V10.5852H189.013ZM206.595 10.5852L212.314 49H202.087L201.589 42.0953H198.006L197.413 49H187.068L192.145 10.5852H206.595ZM201.304 35.2855C200.798 30.9355 200.292 25.5651 199.786 19.1745C198.773 26.5142 198.14 31.8846 197.887 35.2855H201.304ZM236.326 10.5852V49H227.57L222.374 31.5366V49H214.022V10.5852H222.374L227.974 27.8825V10.5852H236.326Z" fill="white"/>
<path fill-rule="evenodd" clip-rule="evenodd" d="M47.0063 11.0178V40.3438H45.8946V16.903H43.6705V25.7725H39.7793V34.0081H36.4434V49.2132H67.0208V48.5802H67.5769V27.6731H65.3529V18.8037H63.1288V15.6354H58.1253V25.7725H57.0134V11.0178H47.0063Z" fill="white"/>
</svg>
