<svg width="92" height="92" viewBox="0 0 92 92" fill="none" xmlns="http://www.w3.org/2000/svg">
<path d="M72.256 49.1408H91.938C91.6085 53.7468 90.6034 58.1555 89.0133 62.289H71.2095C71.7944 58.1103 72.1406 53.7016 72.256 49.1408ZM26.2683 42.5668H42.6718V29.4186H27.3977C26.7839 33.5192 26.4001 37.9197 26.2683 42.5668ZM42.6718 22.8446V0.00358667C41.3289 0.0980893 40.0066 0.258335 38.6925 0.467885C34.6103 4.81498 30.9112 12.6052 28.6167 22.8481H42.6674L42.6718 22.8446ZM63.3134 22.8446C61.0148 12.6013 57.3198 4.81055 53.2376 0.464298C51.9276 0.258861 50.6053 0.0945089 49.2583 0V22.841H63.3091L63.3134 22.8446ZM28.6168 68.8631C30.9154 79.1063 34.6104 86.8971 38.6926 91.2433C40.0026 91.4488 41.3249 91.6131 42.6719 91.7076V68.8667H28.6211L28.6168 68.8631ZM71.2025 29.4186C71.7874 33.5973 72.1335 38.006 72.2488 42.5668H91.9308C91.6013 37.9608 90.5962 33.5521 89.0062 29.4186H71.2025ZM70.049 22.8446H85.8588C80.7138 14.0066 72.7265 7.02575 63.128 3.17176C66.0816 8.48856 68.459 15.1818 70.049 22.8446ZM49.2587 68.8631V91.704C50.6015 91.6095 51.9238 91.4493 53.2379 91.2397C57.3201 86.8926 61.0193 79.1024 63.3138 68.8595H49.263L49.2587 68.8631ZM21.8816 22.8446C23.4758 15.1858 25.8485 8.48888 28.8021 3.17176C19.204 7.02585 11.2165 14.0027 6.07134 22.8446H21.8816ZM21.8816 68.8631H6.07186C11.2169 77.701 19.2041 84.6819 28.8026 88.5359C25.849 83.2191 23.4717 76.5258 21.8816 68.8631ZM27.3933 62.289H42.6673V49.1408H26.2639C26.3916 53.7879 26.7795 58.1885 27.3933 62.289ZM70.0486 68.8631C68.4545 76.5218 66.0817 83.2187 63.1282 88.5359C72.7262 84.6818 80.7138 77.7049 85.8589 68.8631H70.0486ZM2.92468 29.4186C1.33463 33.5521 0.325433 37.9608 0 42.5668H19.682C19.8015 38.006 20.1434 33.5973 20.7283 29.4186H2.92468ZM65.6659 49.1408H49.2625V62.289H64.5365C65.1503 58.1885 65.5341 53.7879 65.6659 49.1408ZM64.5372 29.4186H49.2632V42.5668H65.6667C65.539 37.9197 65.151 33.5192 64.5372 29.4186ZM19.6779 49.1408H0.000105598C0.329651 53.7468 1.33474 58.1555 2.92478 62.289H20.7287C20.1437 58.1103 19.7977 53.7016 19.6824 49.1408H19.6779Z" fill="#C9A15B"/>
</svg>
