<svg width="88" height="88" viewBox="0 0 88 88" fill="none" xmlns="http://www.w3.org/2000/svg">
<path d="M85.9354 0C85.7323 0 85.5292 0.0390629 85.3417 0.11719L66.9507 7.68749C66.7593 7.76562 66.5874 7.8789 66.4429 8.02733L64.0523 10.4179L52.4933 9.73824C52.048 9.7109 51.6144 9.87886 51.298 10.1914L48.0519 13.4375C47.4425 14.0468 47.4425 15.0352 48.0519 15.6484L53.4347 21.0312L22.0557 52.4142L9.57169 48.7423C9.02481 48.5821 8.43109 48.7344 8.02869 49.1368L2.62249 54.543C2.01311 55.1524 2.01311 56.1407 2.62249 56.7539L10.1694 64.3008L8.02879 66.4414C7.41941 67.0508 7.41941 68.0391 8.02879 68.6523L8.72801 69.3515L0.802209 73.7538C-0.104041 74.2577 -0.275891 75.4882 0.458459 76.2226L11.2785 87.0426C12.0128 87.7731 13.2433 87.6051 13.7473 86.6989L18.1496 78.7731L18.8488 79.4723C19.4582 80.0817 20.4465 80.0817 21.0597 79.4723L23.2003 77.3317L30.7472 84.8786C31.3566 85.488 32.3449 85.488 32.9581 84.8786L38.3643 79.4724C38.7666 79.07 38.919 78.4763 38.7588 77.9294L35.0869 65.4454L66.4699 34.0664L71.8527 39.4492C72.4621 40.0586 73.4504 40.0586 74.0636 39.4492L77.3097 36.2031C77.6261 35.8867 77.7902 35.4531 77.7628 35.0078L77.0831 23.4488L79.4737 21.0582C79.6183 20.9137 79.7355 20.7379 79.8136 20.5504L87.3839 2.15937C87.8058 1.13207 87.0518 0.00707001 85.9386 0.00317001L85.9354 0ZM83.0643 4.4297L80.3377 11.0547L76.4393 7.1563L83.0643 4.4297ZM68.7123 10.3399L77.1537 18.7813L77.0366 19.0625L62.1386 33.9646L53.5292 25.3551L68.4272 10.4572L68.7123 10.3399ZM48.0754 30.8089L56.6847 39.4183L52.4035 43.6995L43.7942 35.0901L48.0754 30.8089ZM38.3371 40.5472L46.9464 49.1566L42.6692 53.4339L34.0597 44.8245L38.3371 40.5472ZM28.6026 50.2816L37.2121 58.891L19.95 76.153L11.3406 67.5436L28.6026 50.2816Z" fill="#C9A15B"/>
</svg>
