<svg width="124" height="96" viewBox="0 0 124 96" fill="none" xmlns="http://www.w3.org/2000/svg">
<rect x="45.1113" width="74" height="35" fill="#C9A15B"/>
<path d="M122.611 44.5L112.111 35.5H118.111V32L122.611 44.5Z" fill="#C9A15B" stroke="#C9A15B"/>
<circle cx="64.1113" cy="18" r="4" fill="white"/>
<circle cx="75.1113" cy="18" r="4" fill="white"/>
<circle cx="86.1113" cy="18" r="4" fill="white"/>
<rect width="74" height="35" transform="matrix(-1 0 0 1 78.6113 49)" fill="#C9A15B"/>
<path d="M1.11133 93.5L11.6113 84.5H5.61133V81L1.11133 93.5Z" fill="#C9A15B" stroke="#C9A15B"/>
<circle cx="4" cy="4" r="4" transform="matrix(-1 0 0 1 63.6113 63)" fill="white"/>
<circle cx="4" cy="4" r="4" transform="matrix(-1 0 0 1 52.6113 63)" fill="white"/>
<circle cx="4" cy="4" r="4" transform="matrix(-1 0 0 1 41.6113 63)" fill="white"/>
</svg>
